<svg width="46" height="79" viewBox="0 0 46 79" fill="none" xmlns="http://www.w3.org/2000/svg">
<path d="M1.22 57.92C1.22 52.36 2.98 47.58 6.5 43.58L12.2 49.04C11.12 50.56 10.34 51.94 9.86 53.18C9.34 54.38 9.08 55.76 9.08 57.32C9.08 60.32 10.24 62.68 12.56 64.4C14.88 66.08 18.42 66.92 23.18 66.92C26.66 66.92 29.42 66.64 31.46 66.08C33.46 65.52 34.9 64.68 35.78 63.56C36.66 62.4 37.1 60.92 37.1 59.12C37.1 57.32 36.72 55.68 35.96 54.2H27.38V58.94L19.76 60.02L19.76 43.46H40.52C41.96 45.62 43.08 48.06 43.88 50.78C44.68 53.5 45.08 56.18 45.08 58.82C45.08 71.86 37.76 78.38 23.12 78.38C18.56 78.38 14.64 77.5 11.36 75.74C8.04 73.94 5.52 71.5 3.8 68.42C2.08 65.34 1.22 61.84 1.22 57.92ZM1.22 20.3352C1.22 14.2952 3.14 9.59515 6.98 6.23515C10.82 2.87515 16.2 1.19515 23.12 1.19515C27.64 1.19515 31.56 1.95515 34.88 3.47515C38.16 4.95515 40.68 7.13515 42.44 10.0152C44.2 12.8952 45.08 16.3352 45.08 20.3352C45.08 26.3752 43.16 31.0752 39.32 34.4352C35.48 37.7552 30.08 39.4152 23.12 39.4152C18.6 39.4152 14.7 38.6752 11.42 37.1952C8.14 35.6752 5.62 33.4952 3.86 30.6552C2.1 27.7752 1.22 24.3352 1.22 20.3352ZM9.2 20.3352C9.2 22.9352 10.28 24.8552 12.44 26.0952C14.6 27.2952 18.16 27.8952 23.12 27.8952C28.08 27.8952 31.66 27.2752 33.86 26.0352C36.02 24.7952 37.1 22.8952 37.1 20.3352C37.1 17.6952 36.02 15.7752 33.86 14.5752C31.7 13.3752 28.12 12.7752 23.12 12.7752C18.16 12.7752 14.6 13.3752 12.44 14.5752C10.28 15.7752 9.2 17.6952 9.2 20.3352Z" fill="white"/>
<path d="M6.5 43.58L6.84587 43.2189L6.46921 42.8581L6.12464 43.2497L6.5 43.58ZM12.2 49.04L12.6076 49.3296L12.8577 48.9776L12.5459 48.6789L12.2 49.04ZM9.86 53.18L10.3188 53.3788L10.3227 53.3697L10.3263 53.3605L9.86 53.18ZM12.56 64.4L12.2622 64.8017L12.2667 64.805L12.56 64.4ZM31.46 66.08L31.5924 66.5622L31.5948 66.5615L31.46 66.08ZM35.78 63.56L36.1732 63.869L36.1783 63.8622L35.78 63.56ZM35.96 54.2L36.4048 53.9716L36.2653 53.7H35.96V54.2ZM27.38 54.2V53.7H26.88V54.2H27.38ZM27.38 58.94L27.4502 59.4351L27.88 59.3741V58.94H27.38ZM19.76 60.02H19.26V60.5959L19.8302 60.5151L19.76 60.02ZM19.76 43.46V42.96H19.26V43.46H19.76ZM40.52 43.46L40.936 43.1826L40.7876 42.96H40.52V43.46ZM43.88 50.78L44.3597 50.6389L43.88 50.78ZM11.36 75.74L11.1217 76.1796L11.1236 76.1806L11.36 75.74ZM3.8 68.42L4.23654 68.1762L4.23654 68.1762L3.8 68.42ZM1.72 57.92C1.72 52.4758 3.43943 47.8148 6.87536 43.9103L6.12464 43.2497C2.52057 47.3452 0.719996 52.2442 0.719996 57.92H1.72ZM6.15413 43.9411L11.8541 49.4011L12.5459 48.6789L6.84587 43.2189L6.15413 43.9411ZM11.7924 48.7504C10.6972 50.2918 9.89333 51.7088 9.39372 52.9995L10.3263 53.3605C10.7867 52.1712 11.5428 50.8282 12.6076 49.3296L11.7924 48.7504ZM9.40122 52.9812C8.84931 54.2548 8.58 55.7046 8.58 57.32H9.58C9.58 55.8154 9.83069 54.5052 10.3188 53.3788L9.40122 52.9812ZM8.58 57.32C8.58 60.4711 9.80933 62.9831 12.2622 64.8017L12.8578 63.9983C10.6707 62.3769 9.58 60.1689 9.58 57.32H8.58ZM12.2667 64.805C14.712 66.5757 18.3779 67.42 23.18 67.42V66.42C18.4621 66.42 15.048 65.5843 12.8533 63.995L12.2667 64.805ZM23.18 67.42C26.6799 67.42 29.4905 67.1391 31.5924 66.5622L31.3276 65.5978C29.3495 66.1409 26.6401 66.42 23.18 66.42V67.42ZM31.5948 66.5615C33.6522 65.9854 35.2037 65.1028 36.1732 63.8689L35.3868 63.2511C34.5963 64.2572 33.2678 65.0546 31.3252 65.5985L31.5948 66.5615ZM36.1783 63.8622C37.1386 62.5964 37.6 61.0028 37.6 59.12H36.6C36.6 60.8372 36.1814 62.2036 35.3817 63.2578L36.1783 63.8622ZM37.6 59.12C37.6 57.2472 37.204 55.528 36.4048 53.9716L35.5152 54.4284C36.236 55.832 36.6 57.3928 36.6 59.12H37.6ZM35.96 53.7H27.38V54.7H35.96V53.7ZM26.88 54.2V58.94H27.88V54.2H26.88ZM27.3098 58.4449L19.6898 59.5249L19.8302 60.5151L27.4502 59.4351L27.3098 58.4449ZM20.26 60.02V43.46H19.26L19.26 60.02H20.26ZM19.76 43.96H40.52V42.96H19.76V43.96ZM40.104 43.7373C41.5136 45.8517 42.6132 48.245 43.4003 50.9211L44.3597 50.6389C43.5468 47.875 42.4064 45.3883 40.936 43.1826L40.104 43.7373ZM43.4003 50.9211C44.1878 53.5986 44.58 56.2312 44.58 58.82H45.58C45.58 56.1288 45.1722 53.4014 44.3597 50.6389L43.4003 50.9211ZM44.58 58.82C44.58 65.247 42.7788 69.9801 39.2574 73.1166C35.7251 76.2629 30.3763 77.88 23.12 77.88V78.88C30.5037 78.88 36.1349 77.2371 39.9226 73.8634C43.7212 70.4799 45.58 65.433 45.58 58.82H44.58ZM23.12 77.88C18.6241 77.88 14.7891 77.0126 11.5964 75.2994L11.1236 76.1806C14.4909 77.9874 18.4959 78.88 23.12 78.88V77.88ZM11.5983 75.3004C8.35547 73.5423 5.90706 71.1676 4.23654 68.1762L3.36346 68.6638C5.13294 71.8324 7.72453 74.3377 11.1217 76.1796L11.5983 75.3004ZM4.23654 68.1762C2.56263 65.1788 1.72 61.7643 1.72 57.92H0.719996C0.719996 61.9157 1.59736 65.5012 3.36346 68.6638L4.23654 68.1762ZM6.98 6.23515L6.65075 5.85887L6.65075 5.85887L6.98 6.23515ZM34.88 3.47515L34.6719 3.92978L34.6744 3.93091L34.88 3.47515ZM42.44 10.0152L42.0134 10.2759L42.0134 10.2759L42.44 10.0152ZM39.32 34.4352L39.647 34.8134L39.6493 34.8114L39.32 34.4352ZM11.42 37.1952L11.2098 37.6488L11.2144 37.6509L11.42 37.1952ZM3.86 30.6552L3.43335 30.9159L3.43499 30.9185L3.86 30.6552ZM12.44 26.0952L12.191 26.5288L12.1972 26.5322L12.44 26.0952ZM33.86 26.0352L34.1055 26.4707L34.1089 26.4688L33.86 26.0352ZM33.86 14.5752L33.6172 15.0122L33.6172 15.0122L33.86 14.5752ZM12.44 14.5752L12.6828 15.0122L12.6828 15.0122L12.44 14.5752ZM1.72 20.3352C1.72 14.4102 3.59789 9.85888 7.30925 6.61144L6.65075 5.85887C2.6821 9.33143 0.719996 14.1801 0.719996 20.3352H1.72ZM7.30925 6.61144C11.03 3.35578 16.2777 1.69515 23.12 1.69515V0.695154C16.1223 0.695154 10.61 2.39453 6.65075 5.85887L7.30925 6.61144ZM23.12 1.69515C27.5848 1.69515 31.4308 2.44591 34.6719 3.92977L35.0881 3.02053C31.6892 1.4644 27.6952 0.695154 23.12 0.695154V1.69515ZM34.6744 3.93091C37.8691 5.37246 40.3093 7.4874 42.0134 10.2759L42.8666 9.75443C41.0507 6.78291 38.4509 4.53785 35.0856 3.0194L34.6744 3.93091ZM42.0134 10.2759C43.7171 13.0639 44.58 16.41 44.58 20.3352H45.58C45.58 16.2604 44.6829 12.7264 42.8666 9.75443L42.0134 10.2759ZM44.58 20.3352C44.58 26.2601 42.7021 30.8114 38.9907 34.0589L39.6493 34.8114C43.6179 31.3389 45.58 26.4902 45.58 20.3352H44.58ZM38.993 34.0569C35.2727 37.2734 30.0045 38.9152 23.12 38.9152V39.9152C30.1555 39.9152 35.6873 38.2369 39.647 34.8134L38.993 34.0569ZM23.12 38.9152C18.6533 38.9152 14.8267 38.1838 11.6256 36.7394L11.2144 37.6509C14.5733 39.1665 18.5467 39.9152 23.12 39.9152V38.9152ZM11.6302 36.7415C8.43128 35.2591 5.9893 33.1419 4.285 30.3918L3.43499 30.9185C5.2507 33.8484 7.84872 36.0913 11.2098 37.6488L11.6302 36.7415ZM4.28664 30.3944C2.58285 27.6064 1.72 24.2604 1.72 20.3352H0.719996C0.719996 24.41 1.61714 27.9439 3.43336 30.9159L4.28664 30.3944ZM8.7 20.3352C8.7 23.1045 9.86754 25.1949 12.1911 26.5288L12.6889 25.6615C10.6925 24.5154 9.7 22.7658 9.7 20.3352H8.7ZM12.1972 26.5322C14.4748 27.7976 18.1445 28.3952 23.12 28.3952V27.3952C18.1755 27.3952 14.7252 26.7927 12.6828 25.6581L12.1972 26.5322ZM23.12 28.3952C28.0979 28.3952 31.7878 27.7771 34.1055 26.4707L33.6145 25.5996C31.5322 26.7732 28.0621 27.3952 23.12 27.3952V28.3952ZM34.1089 26.4688C36.4295 25.1366 37.6 23.0681 37.6 20.3352H36.6C36.6 22.7223 35.6105 24.4537 33.6111 25.6015L34.1089 26.4688ZM37.6 20.3352C37.6 18.9463 37.3155 17.7184 36.7258 16.67C36.1351 15.6199 35.2536 14.7774 34.1028 14.1381L33.6172 15.0122C34.6264 15.5729 35.3649 16.2904 35.8542 17.1603C36.3445 18.0319 36.6 19.084 36.6 20.3352H37.6ZM34.1028 14.1381C31.8248 12.8725 28.1346 12.2752 23.12 12.2752V13.2752C28.1054 13.2752 31.5752 13.8778 33.6172 15.0122L34.1028 14.1381ZM23.12 12.2752C18.1445 12.2752 14.4748 12.8727 12.1972 14.1381L12.6828 15.0122C14.7252 13.8776 18.1755 13.2752 23.12 13.2752V12.2752ZM12.1972 14.1381C11.0464 14.7774 10.1649 15.6199 9.57421 16.67C8.98449 17.7184 8.7 18.9463 8.7 20.3352H9.7C9.7 19.084 9.95551 18.0319 10.4458 17.1603C10.9351 16.2904 11.6735 15.5729 12.6828 15.0122L12.1972 14.1381Z" fill="black"/>
</svg>
