<svg width="169" height="280" viewBox="0 0 169 280" fill="none" xmlns="http://www.w3.org/2000/svg">
<path fill-rule="evenodd" clip-rule="evenodd" d="M0 -10H168V181H0V-10Z" fill="#4AF6CD" stroke="black"/>
<path d="M60.22 145.36C60.22 142.2 60.68 139.42 61.6 137.02C62.52 134.58 63.9 132.4 65.74 130.48L71.62 135.46C69.34 138.34 68.2 141.36 68.2 144.52C68.2 146.16 68.52 147.42 69.16 148.3C69.76 149.14 70.62 149.56 71.74 149.56C72.54 149.56 73.2 149.34 73.72 148.9C74.24 148.46 74.74 147.72 75.22 146.68C75.7 145.64 76.3 144 77.02 141.76C78.38 137.48 80.1 134.36 82.18 132.4C84.22 130.4 87.06 129.4 90.7 129.4C93.34 129.4 95.68 130.08 97.72 131.44C99.72 132.8 101.28 134.78 102.4 137.38C103.52 139.94 104.08 142.96 104.08 146.44C104.08 153.08 102.06 158.5 98.02 162.7L91.96 157.24C94.68 153.92 96.04 150.46 96.04 146.86C96.04 144.98 95.64 143.52 94.84 142.48C94 141.44 92.9 140.92 91.54 140.92C90.58 140.92 89.8 141.12 89.2 141.52C88.56 141.92 88 142.64 87.52 143.68C87 144.68 86.44 146.16 85.84 148.12C84.36 152.84 82.58 156.16 80.5 158.08C78.42 160 75.8 160.96 72.64 160.96C70.16 160.96 67.98 160.3 66.1 158.98C64.22 157.62 62.78 155.76 61.78 153.4C60.74 151 60.22 148.32 60.22 145.36ZM89.02 91.9553C91.9 91.9553 94.48 92.5953 96.76 93.8753C99.04 95.1153 100.84 96.9953 102.16 99.5153C103.44 102.035 104.08 105.115 104.08 108.755C104.08 114.275 102.74 118.455 100.06 121.295C97.34 124.135 93.66 125.555 89.02 125.555H61.3V114.455H88.66C91.18 114.455 93.04 114.015 94.24 113.135C95.4 112.215 95.98 110.755 95.98 108.755C95.98 106.755 95.38 105.315 94.18 104.435C92.98 103.555 91.14 103.115 88.66 103.115H61.3V91.9553H89.02ZM87.64 71.9477V75.0077H103V86.1077H61.3V71.6477C61.3 65.7677 62.36 61.3877 64.48 58.5077C66.6 55.5877 69.86 54.1277 74.26 54.1277C76.9 54.1277 79.1 54.7477 80.86 55.9877C82.62 57.1877 84.2 59.1277 85.6 61.8077L103 51.4277V63.7877L87.64 71.9477ZM80.08 75.0077V71.2877C80.08 67.4477 78.14 65.5277 74.26 65.5277C72.46 65.5277 71.14 66.0677 70.3 67.1477C69.46 68.1877 69.04 69.7677 69.04 71.8877V75.0077H80.08ZM103 48.9006H61.3V23.2806L69.16 24.4206V37.8006H79.18V26.0406H87.04V37.8006H103V48.9006Z" fill="white"/>
<path d="M61.6 137.02L62.0669 137.199L62.0678 137.196L61.6 137.02ZM65.74 130.48L66.0631 130.098L65.7043 129.795L65.379 130.134L65.74 130.48ZM71.62 135.46L72.012 135.77L72.3123 135.391L71.9431 135.078L71.62 135.46ZM69.16 148.3L69.5669 148.009L69.5644 148.006L69.16 148.3ZM73.72 148.9L73.397 148.518L73.397 148.518L73.72 148.9ZM75.22 146.68L74.766 146.47L74.766 146.47L75.22 146.68ZM77.02 141.76L77.496 141.913L77.4965 141.911L77.02 141.76ZM82.18 132.4L82.523 132.764L82.53 132.757L82.18 132.4ZM97.72 131.44L98.0012 131.027L97.9973 131.024L97.72 131.44ZM102.4 137.38L101.941 137.578L101.942 137.58L102.4 137.38ZM98.02 162.7L97.6853 163.071L98.0449 163.395L98.3804 163.047L98.02 162.7ZM91.96 157.24L91.5732 156.923L91.2709 157.292L91.6253 157.611L91.96 157.24ZM94.84 142.48L95.2364 142.175L95.229 142.166L94.84 142.48ZM89.2 141.52L89.465 141.944L89.4712 141.94L89.4774 141.936L89.2 141.52ZM87.52 143.68L87.9636 143.911L87.969 143.9L87.974 143.89L87.52 143.68ZM85.84 148.12L86.3171 148.27L86.3181 148.266L85.84 148.12ZM80.5 158.08L80.1609 157.713L80.1609 157.713L80.5 158.08ZM66.1 158.98L65.8069 159.385L65.8127 159.389L66.1 158.98ZM61.78 153.4L62.2404 153.205L62.2388 153.201L61.78 153.4ZM60.72 145.36C60.72 142.248 61.1732 139.53 62.0669 137.199L61.1331 136.841C60.1868 139.31 59.72 142.152 59.72 145.36H60.72ZM62.0678 137.196C62.9636 134.821 64.3067 132.698 66.101 130.826L65.379 130.134C63.4933 132.102 62.0764 134.339 61.1321 136.844L62.0678 137.196ZM65.4169 130.862L71.2969 135.842L71.9431 135.078L66.0631 130.098L65.4169 130.862ZM71.228 135.15C68.8899 138.103 67.7 141.23 67.7 144.52H68.7C68.7 141.49 69.7901 138.577 72.012 135.77L71.228 135.15ZM67.7 144.52C67.7 146.215 68.0291 147.595 68.7556 148.594L69.5644 148.006C69.0108 147.245 68.7 146.105 68.7 144.52H67.7ZM68.7531 148.591C69.4559 149.575 70.4746 150.06 71.74 150.06V149.06C70.7654 149.06 70.0641 148.705 69.5669 148.009L68.7531 148.591ZM71.74 150.06C72.6366 150.06 73.4174 149.811 74.043 149.282L73.397 148.518C72.9826 148.869 72.4434 149.06 71.74 149.06V150.06ZM74.043 149.282C74.6443 148.773 75.1815 147.957 75.674 146.89L74.766 146.47C74.2985 147.483 73.8357 148.147 73.397 148.518L74.043 149.282ZM75.674 146.89C76.1673 145.821 76.7748 144.157 77.496 141.913L76.544 141.607C75.8252 143.843 75.2327 145.459 74.766 146.47L75.674 146.89ZM77.4965 141.911C78.8441 137.671 80.5304 134.641 82.5229 132.764L81.8371 132.036C79.6696 134.079 77.9159 137.289 76.5435 141.609L77.4965 141.911ZM82.53 132.757C84.4528 130.872 87.1533 129.9 90.7 129.9V128.9C86.9666 128.9 83.9872 129.928 81.83 132.043L82.53 132.757ZM90.7 129.9C93.2492 129.9 95.4911 130.555 97.4426 131.856L97.9973 131.024C95.8688 129.605 93.4308 128.9 90.7 128.9V129.9ZM97.4388 131.853C99.3476 133.151 100.852 135.05 101.941 137.578L102.859 137.182C101.708 134.51 100.092 132.449 98.0012 131.027L97.4388 131.853ZM101.942 137.58C103.028 140.064 103.58 143.013 103.58 146.44H104.58C104.58 142.907 104.012 139.816 102.858 137.18L101.942 137.58ZM103.58 146.44C103.58 152.97 101.597 158.26 97.6596 162.353L98.3804 163.047C102.523 158.74 104.58 153.19 104.58 146.44H103.58ZM98.3547 162.329L92.2947 156.869L91.6253 157.611L97.6853 163.071L98.3547 162.329ZM92.3468 157.557C95.1253 154.165 96.54 150.597 96.54 146.86H95.54C95.54 150.323 94.2347 153.675 91.5732 156.923L92.3468 157.557ZM96.54 146.86C96.54 144.916 96.1272 143.333 95.2363 142.175L94.4437 142.785C95.1528 143.707 95.54 145.044 95.54 146.86H96.54ZM95.229 142.166C94.2922 141.006 93.048 140.42 91.54 140.42V141.42C92.752 141.42 93.7078 141.874 94.451 142.794L95.229 142.166ZM91.54 140.42C90.5134 140.42 89.6279 140.634 88.9226 141.104L89.4774 141.936C89.9721 141.606 90.6466 141.42 91.54 141.42V140.42ZM88.935 141.096C88.1801 141.568 87.5671 142.385 87.066 143.47L87.974 143.89C88.4329 142.895 88.9399 142.272 89.465 141.944L88.935 141.096ZM87.0764 143.449C86.5353 144.49 85.9648 146.004 85.3619 147.974L86.3181 148.266C86.9152 146.316 87.4647 144.87 87.9636 143.911L87.0764 143.449ZM85.3629 147.97C83.8921 152.661 82.1449 155.881 80.1609 157.713L80.8391 158.447C83.0151 156.439 84.8279 153.019 86.3171 148.27L85.3629 147.97ZM80.1609 157.713C78.1842 159.537 75.6901 160.46 72.64 160.46V161.46C75.9099 161.46 78.6558 160.463 80.8391 158.447L80.1609 157.713ZM72.64 160.46C70.2542 160.46 68.1764 159.827 66.3873 158.571L65.8127 159.389C67.7836 160.773 70.0658 161.46 72.64 161.46V160.46ZM66.3931 158.575C64.5945 157.274 63.2086 155.49 62.2404 153.205L61.3196 153.595C62.3514 156.03 63.8455 157.966 65.8069 159.385L66.3931 158.575ZM62.2388 153.201C61.2293 150.872 60.72 148.261 60.72 145.36H59.72C59.72 148.379 60.2507 151.128 61.3212 153.599L62.2388 153.201ZM96.76 93.8753L96.5152 94.3113L96.5211 94.3146L96.76 93.8753ZM102.16 99.5153L102.606 99.2889L102.603 99.2833L102.16 99.5153ZM100.06 121.295L100.421 121.641L100.424 121.638L100.06 121.295ZM61.3 125.555H60.8V126.055H61.3V125.555ZM61.3 114.455V113.955H60.8V114.455H61.3ZM94.24 113.135L94.5357 113.539L94.5433 113.533L94.5507 113.527L94.24 113.135ZM94.18 104.435L94.4757 104.032L94.4757 104.032L94.18 104.435ZM61.3 103.115H60.8V103.615H61.3V103.115ZM61.3 91.9553V91.4553H60.8V91.9553H61.3ZM89.02 92.4553C91.8232 92.4553 94.3174 93.0774 96.5152 94.3113L97.0048 93.4393C94.6426 92.1132 91.9768 91.4553 89.02 91.4553V92.4553ZM96.5211 94.3146C98.7057 95.5027 100.438 97.3063 101.717 99.7473L102.603 99.2833C101.242 96.6843 99.3743 94.7279 96.9989 93.4361L96.5211 94.3146ZM101.714 99.7417C102.95 102.174 103.58 105.172 103.58 108.755H104.58C104.58 105.059 103.93 101.896 102.606 99.2889L101.714 99.7417ZM103.58 108.755C103.58 114.201 102.258 118.237 99.6964 120.952L100.424 121.638C103.222 118.673 104.58 114.35 104.58 108.755H103.58ZM99.6989 120.949C97.0901 123.673 93.5502 125.055 89.02 125.055V126.055C93.7698 126.055 97.5899 124.597 100.421 121.641L99.6989 120.949ZM89.02 125.055H61.3V126.055H89.02V125.055ZM61.8 125.555V114.455H60.8V125.555H61.8ZM61.3 114.955H88.66V113.955H61.3V114.955ZM88.66 114.955C91.2199 114.955 93.2085 114.512 94.5357 113.539L93.9443 112.732C92.8715 113.519 91.1401 113.955 88.66 113.955V114.955ZM94.5507 113.527C95.8689 112.482 96.48 110.851 96.48 108.755H95.48C95.48 110.66 94.9311 111.949 93.9293 112.744L94.5507 113.527ZM96.48 108.755C96.48 106.656 95.8455 105.037 94.4757 104.032L93.8843 104.839C94.9145 105.594 95.48 106.855 95.48 108.755H96.48ZM94.4757 104.032C93.1495 103.06 91.182 102.615 88.66 102.615V103.615C91.098 103.615 92.8105 104.051 93.8843 104.839L94.4757 104.032ZM88.66 102.615H61.3V103.615H88.66V102.615ZM61.8 103.115V91.9553H60.8V103.115H61.8ZM61.3 92.4553H89.02V91.4553H61.3V92.4553ZM87.64 71.9477L87.4054 71.5061L87.14 71.6471V71.9477H87.64ZM87.64 75.0077H87.14V75.5077H87.64V75.0077ZM103 75.0077H103.5V74.5077H103V75.0077ZM103 86.1077V86.6077H103.5V86.1077H103ZM61.3 86.1077H60.8V86.6077H61.3V86.1077ZM64.48 58.5077L64.8827 58.8041L64.8846 58.8014L64.48 58.5077ZM80.86 55.9877L80.572 56.3964L80.5783 56.4008L80.86 55.9877ZM85.6 61.8077L85.1568 62.0392L85.4018 62.5081L85.8562 62.2371L85.6 61.8077ZM103 51.4277H103.5V50.5472L102.744 50.9983L103 51.4277ZM103 63.7877L103.235 64.2292L103.5 64.0882V63.7877H103ZM80.08 75.0077V75.5077H80.58V75.0077H80.08ZM70.3 67.1477L70.689 67.4619L70.6947 67.4546L70.3 67.1477ZM69.04 75.0077H68.54V75.5077H69.04V75.0077ZM87.14 71.9477V75.0077H88.14V71.9477H87.14ZM87.64 75.5077H103V74.5077H87.64V75.5077ZM102.5 75.0077V86.1077H103.5V75.0077H102.5ZM103 85.6077H61.3V86.6077H103V85.6077ZM61.8 86.1077V71.6477H60.8V86.1077H61.8ZM61.8 71.6477C61.8 65.8115 62.855 61.5586 64.8827 58.8041L64.0773 58.2112C61.865 61.2167 60.8 65.7238 60.8 71.6477H61.8ZM64.8846 58.8014C66.8895 56.0399 69.9806 54.6277 74.26 54.6277V53.6277C69.7394 53.6277 66.3105 55.1354 64.0754 58.2139L64.8846 58.8014ZM74.26 54.6277C76.8205 54.6277 78.9138 55.2281 80.572 56.3964L81.148 55.5789C79.2862 54.2672 76.9795 53.6277 74.26 53.6277V54.6277ZM80.5783 56.4008C82.2479 57.5391 83.7799 59.4033 85.1568 62.0392L86.0432 61.5761C84.6201 58.852 82.9921 56.8362 81.1417 55.5745L80.5783 56.4008ZM85.8562 62.2371L103.256 51.8571L102.744 50.9983L85.3438 61.3783L85.8562 62.2371ZM102.5 51.4277V63.7877H103.5V51.4277H102.5ZM102.765 63.3461L87.4054 71.5061L87.8746 72.3892L103.235 64.2292L102.765 63.3461ZM80.58 75.0077V71.2877H79.58V75.0077H80.58ZM80.58 71.2877C80.58 69.2893 80.0747 67.6989 78.9767 66.6123C77.8797 65.5266 76.2758 65.0277 74.26 65.0277V66.0277C76.1242 66.0277 77.4303 66.4887 78.2733 67.323C79.1153 68.1564 79.58 69.446 79.58 71.2877H80.58ZM74.26 65.0277C72.3584 65.0277 70.8683 65.6026 69.9053 66.8407L70.6947 67.4546C71.4117 66.5327 72.5616 66.0277 74.26 66.0277V65.0277ZM69.911 66.8335C68.9677 68.0014 68.54 69.7161 68.54 71.8877H69.54C69.54 69.8192 69.9523 68.3739 70.689 67.4618L69.911 66.8335ZM68.54 71.8877V75.0077H69.54V71.8877H68.54ZM69.04 75.5077H80.08V74.5077H69.04V75.5077ZM103 48.9006V49.4006H103.5V48.9006H103ZM61.3 48.9006H60.8V49.4006H61.3V48.9006ZM61.3 23.2806L61.3718 22.7858L60.8 22.7029V23.2806H61.3ZM69.16 24.4206H69.66V23.9879L69.2318 23.9258L69.16 24.4206ZM69.16 37.8006H68.66V38.3006H69.16V37.8006ZM79.18 37.8006V38.3006H79.68V37.8006H79.18ZM79.18 26.0406V25.5406H78.68V26.0406H79.18ZM87.04 26.0406H87.54V25.5406H87.04V26.0406ZM87.04 37.8006H86.54V38.3006H87.04V37.8006ZM103 37.8006H103.5V37.3006H103V37.8006ZM103 48.4006H61.3V49.4006H103V48.4006ZM61.8 48.9006V23.2806H60.8V48.9006H61.8ZM61.2282 23.7754L69.0882 24.9154L69.2318 23.9258L61.3718 22.7858L61.2282 23.7754ZM68.66 24.4206V37.8006H69.66V24.4206H68.66ZM69.16 38.3006H79.18V37.3006H69.16V38.3006ZM79.68 37.8006V26.0406H78.68V37.8006H79.68ZM79.18 26.5406H87.04V25.5406H79.18V26.5406ZM86.54 26.0406V37.8006H87.54V26.0406H86.54ZM87.04 38.3006H103V37.3006H87.04V38.3006ZM102.5 37.8006V48.9006H103.5V37.8006H102.5Z" fill="black"/>
<path d="M60.22 257.92C60.22 252.36 61.98 247.58 65.5 243.58L71.2 249.04C70.12 250.56 69.34 251.94 68.86 253.18C68.34 254.38 68.08 255.76 68.08 257.32C68.08 260.32 69.24 262.68 71.56 264.4C73.88 266.08 77.42 266.92 82.18 266.92C85.66 266.92 88.42 266.64 90.46 266.08C92.46 265.52 93.9 264.68 94.78 263.56C95.66 262.4 96.1 260.92 96.1 259.12C96.1 257.32 95.72 255.68 94.96 254.2H86.38V258.94L78.76 260.02V243.46H99.52C100.96 245.62 102.08 248.06 102.88 250.78C103.68 253.5 104.08 256.18 104.08 258.82C104.08 271.86 96.76 278.38 82.12 278.38C77.56 278.38 73.64 277.5 70.36 275.74C67.04 273.94 64.52 271.5 62.8 268.42C61.08 265.34 60.22 261.84 60.22 257.92ZM60.22 220.335C60.22 214.295 62.14 209.595 65.98 206.235C69.82 202.875 75.2 201.195 82.12 201.195C86.64 201.195 90.56 201.955 93.88 203.475C97.16 204.955 99.68 207.135 101.44 210.015C103.2 212.895 104.08 216.335 104.08 220.335C104.08 226.375 102.16 231.075 98.32 234.435C94.48 237.755 89.08 239.415 82.12 239.415C77.6 239.415 73.7 238.675 70.42 237.195C67.14 235.675 64.62 233.495 62.86 230.655C61.1 227.775 60.22 224.335 60.22 220.335ZM68.2 220.335C68.2 222.935 69.28 224.855 71.44 226.095C73.6 227.295 77.16 227.895 82.12 227.895C87.08 227.895 90.66 227.275 92.86 226.035C95.02 224.795 96.1 222.895 96.1 220.335C96.1 217.695 95.02 215.775 92.86 214.575C90.7 213.375 87.12 212.775 82.12 212.775C77.16 212.775 73.6 213.375 71.44 214.575C69.28 215.775 68.2 217.695 68.2 220.335Z" fill="white"/>
<path d="M65.5 243.58L65.8459 243.219L65.4692 242.858L65.1246 243.25L65.5 243.58ZM71.2 249.04L71.6076 249.33L71.8577 248.978L71.5459 248.679L71.2 249.04ZM68.86 253.18L69.3188 253.379L69.3227 253.37L69.3263 253.36L68.86 253.18ZM71.56 264.4L71.2622 264.802L71.2667 264.805L71.56 264.4ZM90.46 266.08L90.5924 266.562L90.5948 266.561L90.46 266.08ZM94.78 263.56L95.1732 263.869L95.1783 263.862L94.78 263.56ZM94.96 254.2L95.4048 253.972L95.2653 253.7H94.96V254.2ZM86.38 254.2V253.7H85.88V254.2H86.38ZM86.38 258.94L86.4502 259.435L86.88 259.374V258.94H86.38ZM78.76 260.02H78.26V260.596L78.8302 260.515L78.76 260.02ZM78.76 243.46V242.96H78.26V243.46H78.76ZM99.52 243.46L99.936 243.183L99.7876 242.96H99.52V243.46ZM102.88 250.78L103.36 250.639L102.88 250.78ZM70.36 275.74L70.1217 276.18L70.1236 276.181L70.36 275.74ZM62.8 268.42L63.2365 268.176L63.2365 268.176L62.8 268.42ZM60.72 257.92C60.72 252.476 62.4394 247.815 65.8754 243.91L65.1246 243.25C61.5206 247.345 59.72 252.244 59.72 257.92H60.72ZM65.1541 243.941L70.8541 249.401L71.5459 248.679L65.8459 243.219L65.1541 243.941ZM70.7924 248.75C69.6972 250.292 68.8933 251.709 68.3937 253L69.3263 253.36C69.7867 252.171 70.5428 250.828 71.6076 249.33L70.7924 248.75ZM68.4012 252.981C67.8493 254.255 67.58 255.705 67.58 257.32H68.58C68.58 255.815 68.8307 254.505 69.3188 253.379L68.4012 252.981ZM67.58 257.32C67.58 260.471 68.8093 262.983 71.2622 264.802L71.8578 263.998C69.6707 262.377 68.58 260.169 68.58 257.32H67.58ZM71.2667 264.805C73.712 266.576 77.3779 267.42 82.18 267.42V266.42C77.4621 266.42 74.048 265.584 71.8533 263.995L71.2667 264.805ZM82.18 267.42C85.6799 267.42 88.4905 267.139 90.5924 266.562L90.3276 265.598C88.3495 266.141 85.6401 266.42 82.18 266.42V267.42ZM90.5948 266.561C92.6522 265.985 94.2037 265.103 95.1732 263.869L94.3868 263.251C93.5963 264.257 92.2678 265.055 90.3252 265.599L90.5948 266.561ZM95.1783 263.862C96.1386 262.596 96.6 261.003 96.6 259.12H95.6C95.6 260.837 95.1814 262.204 94.3817 263.258L95.1783 263.862ZM96.6 259.12C96.6 257.247 96.204 255.528 95.4048 253.972L94.5152 254.428C95.236 255.832 95.6 257.393 95.6 259.12H96.6ZM94.96 253.7H86.38V254.7H94.96V253.7ZM85.88 254.2V258.94H86.88V254.2H85.88ZM86.3098 258.445L78.6898 259.525L78.8302 260.515L86.4502 259.435L86.3098 258.445ZM79.26 260.02V243.46H78.26V260.02H79.26ZM78.76 243.96H99.52V242.96H78.76V243.96ZM99.104 243.737C100.514 245.852 101.613 248.245 102.4 250.921L103.36 250.639C102.547 247.875 101.406 245.388 99.936 243.183L99.104 243.737ZM102.4 250.921C103.188 253.599 103.58 256.231 103.58 258.82H104.58C104.58 256.129 104.172 253.401 103.36 250.639L102.4 250.921ZM103.58 258.82C103.58 265.247 101.779 269.98 98.2574 273.117C94.7251 276.263 89.3763 277.88 82.12 277.88V278.88C89.5037 278.88 95.1349 277.237 98.9226 273.863C102.721 270.48 104.58 265.433 104.58 258.82H103.58ZM82.12 277.88C77.6241 277.88 73.7891 277.013 70.5964 275.299L70.1236 276.181C73.4909 277.987 77.4959 278.88 82.12 278.88V277.88ZM70.5983 275.3C67.3555 273.542 64.9071 271.168 63.2365 268.176L62.3635 268.664C64.1329 271.832 66.7245 274.338 70.1217 276.18L70.5983 275.3ZM63.2365 268.176C61.5626 265.179 60.72 261.764 60.72 257.92H59.72C59.72 261.916 60.5974 265.501 62.3635 268.664L63.2365 268.176ZM65.98 206.235L65.6507 205.859L65.6507 205.859L65.98 206.235ZM93.88 203.475L93.6719 203.93L93.6744 203.931L93.88 203.475ZM101.44 210.015L101.013 210.276L101.013 210.276L101.44 210.015ZM98.32 234.435L98.647 234.813L98.6493 234.811L98.32 234.435ZM70.42 237.195L70.2098 237.649L70.2144 237.651L70.42 237.195ZM62.86 230.655L62.4333 230.916L62.435 230.919L62.86 230.655ZM71.44 226.095L71.191 226.529L71.1972 226.532L71.44 226.095ZM92.86 226.035L93.1055 226.471L93.1089 226.469L92.86 226.035ZM92.86 214.575L92.6172 215.012L92.6172 215.012L92.86 214.575ZM71.44 214.575L71.6828 215.012L71.6828 215.012L71.44 214.575ZM60.72 220.335C60.72 214.41 62.5979 209.859 66.3092 206.611L65.6507 205.859C61.6821 209.331 59.72 214.18 59.72 220.335H60.72ZM66.3092 206.611C70.03 203.356 75.2777 201.695 82.12 201.695V200.695C75.1223 200.695 69.61 202.395 65.6507 205.859L66.3092 206.611ZM82.12 201.695C86.5848 201.695 90.4308 202.446 93.6719 203.93L94.0881 203.021C90.6892 201.464 86.6952 200.695 82.12 200.695V201.695ZM93.6744 203.931C96.8691 205.372 99.3093 207.487 101.013 210.276L101.867 209.754C100.051 206.783 97.4509 204.538 94.0856 203.019L93.6744 203.931ZM101.013 210.276C102.717 213.064 103.58 216.41 103.58 220.335H104.58C104.58 216.26 103.683 212.726 101.867 209.754L101.013 210.276ZM103.58 220.335C103.58 226.26 101.702 230.811 97.9907 234.059L98.6493 234.811C102.618 231.339 104.58 226.49 104.58 220.335H103.58ZM97.993 234.057C94.2727 237.273 89.0045 238.915 82.12 238.915V239.915C89.1555 239.915 94.6873 238.237 98.647 234.813L97.993 234.057ZM82.12 238.915C77.6533 238.915 73.8267 238.184 70.6256 236.739L70.2144 237.651C73.5733 239.167 77.5467 239.915 82.12 239.915V238.915ZM70.6302 236.742C67.4313 235.259 64.9893 233.142 63.285 230.392L62.435 230.919C64.2507 233.848 66.8487 236.091 70.2098 237.649L70.6302 236.742ZM63.2866 230.394C61.5829 227.606 60.72 224.26 60.72 220.335H59.72C59.72 224.41 60.6171 227.944 62.4334 230.916L63.2866 230.394ZM67.7 220.335C67.7 223.105 68.8675 225.195 71.1911 226.529L71.6889 225.662C69.6925 224.515 68.7 222.766 68.7 220.335H67.7ZM71.1972 226.532C73.4748 227.798 77.1445 228.395 82.12 228.395V227.395C77.1755 227.395 73.7252 226.793 71.6828 225.658L71.1972 226.532ZM82.12 228.395C87.0979 228.395 90.7878 227.777 93.1055 226.471L92.6145 225.6C90.5322 226.773 87.0621 227.395 82.12 227.395V228.395ZM93.1089 226.469C95.4295 225.137 96.6 223.068 96.6 220.335H95.6C95.6 222.722 94.6105 224.454 92.6111 225.602L93.1089 226.469ZM96.6 220.335C96.6 218.946 96.3155 217.718 95.7258 216.67C95.1351 215.62 94.2536 214.777 93.1028 214.138L92.6172 215.012C93.6264 215.573 94.3649 216.29 94.8542 217.16C95.3445 218.032 95.6 219.084 95.6 220.335H96.6ZM93.1028 214.138C90.8248 212.873 87.1346 212.275 82.12 212.275V213.275C87.1054 213.275 90.5752 213.878 92.6172 215.012L93.1028 214.138ZM82.12 212.275C77.1445 212.275 73.4748 212.873 71.1972 214.138L71.6828 215.012C73.7252 213.878 77.1755 213.275 82.12 213.275V212.275ZM71.1972 214.138C70.0464 214.777 69.1649 215.62 68.5742 216.67C67.9845 217.718 67.7 218.946 67.7 220.335H68.7C68.7 219.084 68.9555 218.032 69.4458 217.16C69.9351 216.29 70.6735 215.573 71.6828 215.012L71.1972 214.138Z" fill="black"/>
<rect x="83" y="191" width="20" height="1" transform="rotate(-90 83 191)" fill="white" stroke="black"/>
</svg>
